<svg xmlns="http://www.w3.org/2000/svg" xmlns:xlink="http://www.w3.org/1999/xlink" viewBox="0 0 1200 630"><defs><style>.cls-1{fill:url(#radial-gradient);}.cls-2{fill:#666;}.cls-3{fill:#8c8c8c;}.cls-4{fill:#896cae;}.cls-5{fill:#ff7f00;}.cls-6{fill:#ee4239;}.cls-7{fill:#3f3f3f;}.cls-8{fill:#b2b2b2;}.cls-9{fill:#009fc5;}.cls-10{fill:#fff;}</style><radialGradient id="radial-gradient" cx="600" cy="315" r="631.45" gradientUnits="userSpaceOnUse"><stop offset="0" stop-color="#fff"/><stop offset="0.62" stop-color="#fdfdfd"/><stop offset="0.85" stop-color="#f6f6f6"/><stop offset="1" stop-color="#ebebeb"/></radialGradient></defs><g id="Calque_2" data-name="Calque 2"><g id="Layer_1" data-name="Layer 1"><rect class="cls-1" width="1200" height="630"/><path class="cls-2" d="M1025.34,552.61a3.6,3.6,0,1,0,0,5.09A3.6,3.6,0,0,0,1025.34,552.61Z"/><path class="cls-2" d="M1034.08,561.35a3.6,3.6,0,1,0,0,5.09A3.59,3.59,0,0,0,1034.08,561.35Z"/><path class="cls-2" d="M1060.3,587.57a3.6,3.6,0,1,0,0,5.1A3.6,3.6,0,0,0,1060.3,587.57Z"/><path class="cls-2" d="M1043.12,569.79l-.3.3-.3.3a3.17,3.17,0,1,1-2.25-.93,3.16,3.16,0,0,1,2.25.93l.3-.3.3-.3a4,4,0,1,0,0,5.7A4,4,0,0,0,1043.12,569.79Z"/><path class="cls-2" d="M1051.86,578.53l-.3.3-.3.3a3.18,3.18,0,0,1-2.25,5.43,3.18,3.18,0,0,1-3.17-3.18,3.17,3.17,0,0,1,5.42-2.25l.3-.3.3-.3a4,4,0,1,0,0,5.7A4,4,0,0,0,1051.86,578.53Z"/><path class="cls-2" d="M1069.34,596l-.3.3-.3.3a3.19,3.19,0,0,1,0,4.5,3.18,3.18,0,0,1-5.42-2.25,3.2,3.2,0,0,1,.93-2.25,3.2,3.2,0,0,1,4.49,0l.3-.3.3-.3a4,4,0,1,0,0,5.7A4,4,0,0,0,1069.34,596Z"/><path class="cls-2" d="M1056.37,609.59a3.6,3.6,0,1,0,0,5.1A3.61,3.61,0,0,0,1056.37,609.59Z"/><path class="cls-2" d="M1047.63,600.85a3.6,3.6,0,1,0,0,5.09A3.6,3.6,0,0,0,1047.63,600.85Z"/><path class="cls-2" d="M1021.41,574.63a3.6,3.6,0,1,0,0,5.09A3.6,3.6,0,0,0,1021.41,574.63Z"/><path class="cls-2" d="M1039.19,591.81a4,4,0,0,0-5.7,5.7l.3-.31.31-.3a3.21,3.21,0,0,1-.94-2.24,3.19,3.19,0,1,1,.94,2.24l-.31.3-.3.31a4,4,0,1,0,5.7-5.7Z"/><path class="cls-2" d="M1030.45,583.07a4,4,0,1,0-5.7,5.7l.3-.31.3-.3a3.2,3.2,0,0,1-.93-2.24,3.18,3.18,0,1,1,3.18,3.17,3.2,3.2,0,0,1-2.25-.93l-.3.3-.3.31a4,4,0,0,0,5.7-5.7Z"/><path class="cls-2" d="M1013,565.59a4,4,0,1,0-5.7,5.7l.3-.31.3-.3a3.17,3.17,0,1,1,2.25.93,3.18,3.18,0,0,1-2.25-.93l-.3.3-.3.31a4,4,0,0,0,5.7-5.7Z"/><path class="cls-2" d="M878.61,314.06a3.6,3.6,0,1,0,0,5.09A3.59,3.59,0,0,0,878.61,314.06Z"/><path class="cls-2" d="M887.35,322.8a3.6,3.6,0,1,0,0,5.09A3.59,3.59,0,0,0,887.35,322.8Z"/><path class="cls-2" d="M913.57,349a3.6,3.6,0,1,0,0,5.09A3.59,3.59,0,0,0,913.57,349Z"/><path class="cls-2" d="M896.4,331.24l-.31.3-.3.3a3.17,3.17,0,1,1-2.24-.93,3.16,3.16,0,0,1,2.24.93l.3-.3.31-.3a4,4,0,1,0,0,5.69A4,4,0,0,0,896.4,331.24Z"/><path class="cls-2" d="M905.14,340l-.31.3-.3.3a3.16,3.16,0,0,1,0,4.49,3.18,3.18,0,1,1,0-4.49l.3-.3.31-.3a4,4,0,1,0,0,5.7A4,4,0,0,0,905.14,340Z"/><path class="cls-2" d="M922.62,357.46l-.3.3-.3.3a3.16,3.16,0,0,1,.93,2.25,3.2,3.2,0,0,1-.93,2.25,3.18,3.18,0,1,1,0-4.5l.3-.3.3-.3a4,4,0,1,0,0,5.7A4,4,0,0,0,922.62,357.46Z"/><path class="cls-2" d="M784.38,400.49a3.6,3.6,0,1,0,0,5.09A3.59,3.59,0,0,0,784.38,400.49Z"/><path class="cls-2" d="M775.64,391.75a3.6,3.6,0,1,0,0,5.09A3.61,3.61,0,0,0,775.64,391.75Z"/><path class="cls-2" d="M749.42,365.52a3.61,3.61,0,1,0,0,5.09A3.6,3.6,0,0,0,749.42,365.52Z"/><path class="cls-2" d="M767.2,382.7a4,4,0,1,0-5.7,5.7l.3-.3.3-.3a3.18,3.18,0,0,1,2.25-5.43,3.18,3.18,0,0,1,2.25,5.43,3.19,3.19,0,0,1-4.5,0l-.3.3-.3.3a4,4,0,0,0,5.7-5.7Z"/><path class="cls-2" d="M758.46,374a4,4,0,0,0-5.7,5.7l.3-.3.3-.3a3.2,3.2,0,0,1-.93-2.25,3.18,3.18,0,0,1,5.43-2.25,3.19,3.19,0,0,1,0,4.5,3.21,3.21,0,0,1-4.5,0l-.3.3-.3.3a4,4,0,0,0,5.7-5.7Z"/><path class="cls-2" d="M741,356.48a4,4,0,0,0-5.7,5.7l.3-.3.3-.31a3.18,3.18,0,0,1,2.25-5.42,3.16,3.16,0,0,1,3.17,3.17,3.17,3.17,0,0,1-5.42,2.25l-.3.31-.3.3a4,4,0,0,0,5.7-5.7Z"/><path class="cls-3" d="M1065.13,465.91a8.7,8.7,0,0,0,0-12.28L1050.46,439l-.29.29-.29.29,14.66,14.67a7.86,7.86,0,0,1,0,11.11L1049.87,480a7.86,7.86,0,0,1-11.11,0l-14.67-14.66a7.89,7.89,0,0,1,0-11.12l14.66-14.67a7.91,7.91,0,0,1,11.13,0l.29-.29.29-.29a8.72,8.72,0,0,0-12.29,0l-14.66,14.67a8.69,8.69,0,0,0,0,12.28l14.66,14.67a8.72,8.72,0,0,0,12.29,0Z"/><path class="cls-4" d="M1059.87,444.22a3.5,3.5,0,1,0,0,4.94A3.49,3.49,0,0,0,1059.87,444.22Z"/><path class="cls-5" d="M1059.34,469.91a3.49,3.49,0,1,0,0,4.94A3.5,3.5,0,0,0,1059.34,469.91Z"/><path class="cls-3" d="M1033.92,470.17l-.3.29-.29.29a3.09,3.09,0,1,1-2.18-.9,3.07,3.07,0,0,1,2.18.9l.29-.29.3-.29a3.91,3.91,0,1,0,0,5.53A3.91,3.91,0,0,0,1033.92,470.17Z"/><polygon class="cls-6" points="1034.68 442.97 1030.53 444.09 1026.38 445.2 1029.41 448.24 1032.46 451.28 1033.57 447.13 1034.68 442.97"/><path class="cls-7" d="M1128.07,621.36l37.2-37.2a8.79,8.79,0,0,0,0-12.4l-21.42-21.42a8.79,8.79,0,0,0-12.4,0L1072.84,609a7.21,7.21,0,0,1-10.15,0l-49.6-49.6a7.19,7.19,0,0,1,0-10.14l34.94-35a8.78,8.78,0,0,0,0-12.4L1021,474.82a8.78,8.78,0,0,0-12.4,0l-27.05,27.05a7.21,7.21,0,0,1-10.15,0l-80-80a7.17,7.17,0,0,1,0-10.14l39.45-39.45a8.79,8.79,0,0,0,0-12.4L875.56,304.6a8.78,8.78,0,0,0-12.39,0l-64.26,64.25a7.19,7.19,0,0,1-10.14,0l-38.33-38.32-1.13,1.12L787.64,370a8.79,8.79,0,0,0,12.4,0l64.25-64.25a7.18,7.18,0,0,1,10.15,0L929.67,361a7.21,7.21,0,0,1,0,10.15l-39.45,39.45a8.79,8.79,0,0,0,0,12.4l80,80a8.81,8.81,0,0,0,12.41,0l27.05-27.06a7.19,7.19,0,0,1,10.14,0L1046.91,503a7.19,7.19,0,0,1,0,10.14l-35,35a8.79,8.79,0,0,0,0,12.4l49.6,49.6a8.79,8.79,0,0,0,12.4,0l58.62-58.62a7.21,7.21,0,0,1,10.15,0l21.41,21.42a7.19,7.19,0,0,1,0,10.14l-37.2,37.2a8.79,8.79,0,0,0-1.78,9.77H1127a7.14,7.14,0,0,1,1.12-8.64Z"/><path class="cls-2" d="M1147.11,623a7.15,7.15,0,0,1-5.07-2.09l-55.24-55.24a7.19,7.19,0,0,1,0-10.14l39.46-39.46a8.79,8.79,0,0,0,0-12.4l-80-80a8.79,8.79,0,0,0-12.4,0l-27,27.05a7.21,7.21,0,0,1-10.15,0l-27-27.05a7.18,7.18,0,0,1,0-10.15l34.94-34.94a8.79,8.79,0,0,0,0-12.4l-49.59-49.6a8.81,8.81,0,0,0-12.41,0L883.9,375.18a7.24,7.24,0,0,1-5.08,2.09,7.15,7.15,0,0,1-5.07-2.09l-21.42-21.42a7.19,7.19,0,0,1,0-10.14l37.2-37.21a8.79,8.79,0,0,0,0-12.4l-45.09-45.09a8.79,8.79,0,0,0-12.4,0l-46.21,46.22,1.12,1.13,46.22-46.22a7.21,7.21,0,0,1,10.15,0l45.09,45.09a7.23,7.23,0,0,1,0,10.15l-37.2,37.2a8.78,8.78,0,0,0,0,12.4l21.42,21.41a8.76,8.76,0,0,0,12.39,0l58.62-58.61a7.17,7.17,0,0,1,10.14,0l49.61,49.59a7.23,7.23,0,0,1,0,10.15l-34.95,34.94a8.79,8.79,0,0,0,0,12.4l27.06,27.06a8.78,8.78,0,0,0,12.39,0L1035,424.77a7.19,7.19,0,0,1,10.14,0l80,80a7.21,7.21,0,0,1,0,10.15l-39.46,39.45a8.79,8.79,0,0,0,0,12.4l55.23,55.24a8.79,8.79,0,0,0,12.4,0L1200,575.36V573.1l-47.82,47.82A7.15,7.15,0,0,1,1147.11,623Z"/><path class="cls-8" d="M1187.26,495.36,1088.65,594a6.12,6.12,0,0,1-4.36,1.79,6.18,6.18,0,0,1-4.36-1.81l-26.21-26.2a6.19,6.19,0,0,1,0-8.72l66.71-66.7a7.56,7.56,0,0,0,0-10.66l-23.29-23.29a7.55,7.55,0,0,0-10.66,0l-65.74,65.74a6.12,6.12,0,0,1-4.36,1.79,6.19,6.19,0,0,1-4.36-1.8l-37.84-37.85a6.18,6.18,0,0,1,0-8.72l88-88a7.54,7.54,0,0,0,0-10.65l-32-32a7.54,7.54,0,0,0-10.65,0l-57,57a6.08,6.08,0,0,1-4.36,1.79,6.15,6.15,0,0,1-4.36-1.8l-96.07-96.08a6.18,6.18,0,0,1-1.81-4.36,6.1,6.1,0,0,1,1.79-4.35l38.68-38.68a7.55,7.55,0,0,0,0-10.65l-32.46-32.47-1,1,32.47,32.46a6.17,6.17,0,0,1,1.8,4.37,6.06,6.06,0,0,1-1.79,4.35l-38.67,38.68a7.54,7.54,0,0,0,0,10.65l96.07,96.07a7.56,7.56,0,0,0,10.66,0l57-57.05a6.18,6.18,0,0,1,8.72,0l32,32a6.18,6.18,0,0,1,0,8.72l-88,88a7.55,7.55,0,0,0,0,10.66L1011,525.06a7.55,7.55,0,0,0,10.65,0l65.75-65.74a6.17,6.17,0,0,1,8.71,0l23.29,23.28a6.18,6.18,0,0,1,0,8.72l-66.71,66.71a7.55,7.55,0,0,0,0,10.66l26.2,26.2a7.56,7.56,0,0,0,10.66,0l98.61-98.61a6.08,6.08,0,0,1,4.36-1.79,6.15,6.15,0,0,1,4.36,1.8l3,3.05v-1.93l-2.08-2.08A7.55,7.55,0,0,0,1187.26,495.36Z"/><path class="cls-3" d="M955.74,562.91a6.11,6.11,0,0,1,1.78-4.31L1015,501.09a7.45,7.45,0,0,0,0-10.54l-39.29-39.29a7.47,7.47,0,0,0-10.54,0l-57.51,57.51a6.12,6.12,0,0,1-8.63,0l-15.33-15.33a6.12,6.12,0,0,1,0-8.63L979.58,389a7.48,7.48,0,0,0,0-10.54l-20.13-20.13a7.47,7.47,0,0,0-10.54,0l-93,93a6.12,6.12,0,0,1-8.63,0L821.44,425.4a6.12,6.12,0,0,1,0-8.63L856.9,381.3a7.45,7.45,0,0,0,0-10.54l-34.5-34.5a7.47,7.47,0,0,0-10.54,0l-30.67,30.68a6.14,6.14,0,0,1-8.63,0l-24-24a6.13,6.13,0,0,1,0-8.63l72.85-72.85-1-.95-72.84,72.84a7.48,7.48,0,0,0,0,10.55l24,23.95a7.48,7.48,0,0,0,10.55,0l30.67-30.67a6.11,6.11,0,0,1,8.62,0l34.5,34.5a6.11,6.11,0,0,1,0,8.62l-35.46,35.47a7.47,7.47,0,0,0,0,10.54l25.87,25.88a7.48,7.48,0,0,0,10.55,0l93-93a6.12,6.12,0,0,1,8.63,0l20.12,20.13a6.11,6.11,0,0,1,0,8.62l-95.85,95.85a7.48,7.48,0,0,0,0,10.55l15.33,15.33a7.48,7.48,0,0,0,10.55,0l57.51-57.51a6.12,6.12,0,0,1,8.62,0l39.3,39.3a6.12,6.12,0,0,1,0,8.62l-57.51,57.51a7.47,7.47,0,0,0,0,10.54L1018.38,630h1.92l-62.78-62.77A6.16,6.16,0,0,1,955.74,562.91Z"/><path class="cls-9" d="M977.16,361.37a11.31,11.31,0,1,0,0,16A11.3,11.3,0,0,0,977.16,361.37Z"/><path class="cls-9" d="M869.35,208.5a11.31,11.31,0,1,0,0,16A11.31,11.31,0,0,0,869.35,208.5Z"/><path class="cls-6" d="M993.13,491.12a11.31,11.31,0,1,0,0,16A11.32,11.32,0,0,0,993.13,491.12Z"/><path class="cls-10" d="M989.14,495.12a5.66,5.66,0,1,0,0,8A5.67,5.67,0,0,0,989.14,495.12Z"/><path class="cls-9" d="M841.66,431a11.31,11.31,0,1,0,0,16A11.3,11.3,0,0,0,841.66,431Z"/><path class="cls-9" d="M937.48,452.94a11.31,11.31,0,1,0,0,16A11.32,11.32,0,0,0,937.48,452.94Z"/><path class="cls-9" d="M800,356.38a17.66,17.66,0,1,0,0,25A17.65,17.65,0,0,0,800,356.38Z"/><path class="cls-5" d="M795,361.37a10.6,10.6,0,1,0,0,15A10.59,10.59,0,0,0,795,361.37Z"/><path class="cls-5" d="M1007.5,601.13a11.43,11.43,0,1,0,0,16.17A11.43,11.43,0,0,0,1007.5,601.13Z"/><path class="cls-4" d="M1016.28,626.08a11.38,11.38,0,0,0-2.55,3.92H1035a11.24,11.24,0,0,0-2.55-3.92A11.43,11.43,0,0,0,1016.28,626.08Z"/><path class="cls-6" d="M982.55,576.17a11.43,11.43,0,1,0,0,16.17A11.44,11.44,0,0,0,982.55,576.17Z"/><path class="cls-5" d="M1059.9,348.1a21.31,21.31,0,1,0,0,30.14A21.32,21.32,0,0,0,1059.9,348.1Z"/><path class="cls-9" d="M1053.91,354.09a12.84,12.84,0,1,0,0,18.16A12.84,12.84,0,0,0,1053.91,354.09Z"/><path class="cls-5" d="M973.06,319.15a12.84,12.84,0,1,0,0,18.17A12.84,12.84,0,0,0,973.06,319.15Z"/><path class="cls-5" d="M825.84,294.7a12.84,12.84,0,1,0,0,18.16A12.85,12.85,0,0,0,825.84,294.7Z"/><path class="cls-6" d="M902.63,493.49a14.32,14.32,0,1,0-4.88,19.66A14.33,14.33,0,0,0,902.63,493.49Z"/><path class="cls-4" d="M1200,609.71A14.3,14.3,0,0,0,1184,630h16Z"/><path class="cls-5" d="M1200,616.9a7.48,7.48,0,0,0-9.62,10.61,7.38,7.38,0,0,0,2.51,2.49H1200Z"/><path class="cls-6" d="M1128.71,487.51a14.32,14.32,0,1,0-4.88,19.66A14.33,14.33,0,0,0,1128.71,487.51Z"/><path class="cls-5" d="M844.68,392.57a7.24,7.24,0,1,0-.21,10.23A7.23,7.23,0,0,0,844.68,392.57Z"/><path class="cls-5" d="M756.18,325a7.24,7.24,0,1,0-.2,10.23A7.23,7.23,0,0,0,756.18,325Z"/><path class="cls-6" d="M886.17,271.41a14.33,14.33,0,1,0-4.89,19.66A14.33,14.33,0,0,0,886.17,271.41Z"/><path class="cls-5" d="M880.29,275a7.47,7.47,0,1,0-2.54,10.25A7.46,7.46,0,0,0,880.29,275Z"/><path class="cls-4" d="M911.8,397.89a30.51,30.51,0,1,0,0,43.16A30.49,30.49,0,0,0,911.8,397.89Z"/><path class="cls-5" d="M903.82,405.87a19.22,19.22,0,1,0,0,27.19A19.22,19.22,0,0,0,903.82,405.87Z"/><path class="cls-4" d="M1114.92,568.07a17.8,17.8,0,1,0,0,25.19A17.79,17.79,0,0,0,1114.92,568.07Z"/><path class="cls-9" d="M1109.93,573.06a10.75,10.75,0,1,0,0,15.2A10.74,10.74,0,0,0,1109.93,573.06Z"/><path class="cls-4" d="M1159.84,557.59a7.22,7.22,0,1,0,0,10.21A7.22,7.22,0,0,0,1159.84,557.59Z"/><path class="cls-3" d="M967,533.84a10.38,10.38,0,0,0,0-14.63l-17.46-17.45a10.37,10.37,0,0,0-14.62,0l-17.46,17.45a10.38,10.38,0,0,0,0,14.63L935,551.3l.34-.35.36-.35-17.47-17.46a9.38,9.38,0,0,1,0-13.23l17.46-17.45a9.39,9.39,0,0,1,13.23,0l17.46,17.46a9.38,9.38,0,0,1,0,13.23L948.88,550.6a9.38,9.38,0,0,1-13.23,0l-.36.35-.34.35a10.37,10.37,0,0,0,14.62,0Z"/><path class="cls-6" d="M929.63,539.16a4.16,4.16,0,1,0,0,5.88A4.16,4.16,0,0,0,929.63,539.16Z"/><path class="cls-5" d="M930.26,508.58a4.16,4.16,0,1,0,0,5.89A4.16,4.16,0,0,0,930.26,508.58Z"/><path class="cls-3" d="M961.22,507.57a4.65,4.65,0,0,0-6.58,6.58l.35-.35.35-.35a3.63,3.63,0,0,1-1.08-2.59,3.65,3.65,0,0,1,3.67-3.67,3.67,3.67,0,1,1-2.59,6.26l-.35.35-.35.35a4.65,4.65,0,1,0,6.58-6.58Z"/><polygon class="cls-4" points="963.61 543.86 959.99 540.25 956.38 536.63 955.05 541.57 953.72 546.52 958.67 545.19 963.61 543.86"/><path class="cls-3" d="M1164.09,453.54a10.37,10.37,0,0,0,0-14.62l-17.46-17.46a10.37,10.37,0,0,0-14.62,0l-17.46,17.46.34.34.35.35,17.47-17.46a9.39,9.39,0,0,1,13.23,0l17.45,17.45a9.38,9.38,0,0,1,0,13.23l-17.45,17.47a9.38,9.38,0,0,1-13.24,0l-17.45-17.45a9.38,9.38,0,0,1,0-13.24l-.35-.35-.34-.34a10.37,10.37,0,0,0,0,14.62L1132,471a10.37,10.37,0,0,0,14.62,0Z"/><path class="cls-6" d="M1126.69,427.72a4.16,4.16,0,1,0,0,5.89A4.15,4.15,0,0,0,1126.69,427.72Z"/><path class="cls-5" d="M1157.27,428.35a4.16,4.16,0,1,0,0,5.88A4.16,4.16,0,0,0,1157.27,428.35Z"/><path class="cls-3" d="M1158.28,458.61a4.65,4.65,0,0,0-6.58,0l.34.35.35.35a3.67,3.67,0,0,1,6.27,2.59,3.69,3.69,0,0,1-3.67,3.67,3.67,3.67,0,0,1-2.6-6.26L1152,459l-.34-.35a4.65,4.65,0,1,0,6.58,0Z"/><polygon class="cls-4" points="1129.22 460.35 1124.27 459.02 1119.33 457.7 1120.65 462.64 1121.98 467.58 1125.6 463.97 1129.22 460.35"/><path class="cls-3" d="M948.07,295.29a10.38,10.38,0,0,0,0-14.63L930.61,263.2a10.38,10.38,0,0,0-14.63,0l-17.46,17.46a10.38,10.38,0,0,0,0,14.63L916,312.74l.35-.34.35-.35-17.46-17.46a9.38,9.38,0,0,1,0-13.23l17.46-17.46a9.38,9.38,0,0,1,13.23,0l17.46,17.46a9.38,9.38,0,0,1,0,13.23l-17.46,17.46a9.38,9.38,0,0,1-13.23,0l-.35.35-.35.34a10.36,10.36,0,0,0,14.63,0Z"/><path class="cls-6" d="M910.67,300.6a4.16,4.16,0,1,0,0,5.89A4.17,4.17,0,0,0,910.67,300.6Z"/><path class="cls-5" d="M911.3,270a4.16,4.16,0,1,0,0,5.88A4.16,4.16,0,0,0,911.3,270Z"/><path class="cls-3" d="M942.25,269a4.65,4.65,0,1,0-6.58,6.58l.35-.35.35-.35a3.64,3.64,0,0,1-1.08-2.59,3.69,3.69,0,0,1,1.08-2.6,3.67,3.67,0,0,1,5.19,5.19,3.66,3.66,0,0,1-5.19,0l-.35.35-.35.35a4.65,4.65,0,1,0,6.58-6.58Z"/><polygon class="cls-4" points="944.65 305.31 941.03 301.69 937.41 298.08 936.08 303.02 934.76 307.96 939.7 306.64 944.65 305.31"/><path class="cls-3" d="M837.35,309.92l-.3-.3-.29-.29L822.09,324A7.88,7.88,0,0,1,811,324l-14.67-14.67a7.89,7.89,0,0,1,0-11.12L811,283.55a7.87,7.87,0,0,1,11.11,0l14.67,14.67a7.87,7.87,0,0,1,0,11.12l.29.29.3.3a8.72,8.72,0,0,0,0-12.29L822.68,283a8.72,8.72,0,0,0-12.29,0l-14.66,14.67a8.71,8.71,0,0,0,0,12.29l14.66,14.66a8.72,8.72,0,0,0,12.29,0Z"/><path class="cls-3" d="M1173.56,623.42a7.8,7.8,0,0,1,2.29-5.55l14.67-14.67A7.78,7.78,0,0,1,1200,602v-.93a8.7,8.7,0,0,0-10.07,1.56l-14.67,14.67a8.72,8.72,0,0,0,0,12.29l.44.43h1.17l-1-1A7.83,7.83,0,0,1,1173.56,623.42Z"/><path class="cls-6" d="M1181,501.39a11.31,11.31,0,1,0,0,16A11.31,11.31,0,0,0,1181,501.39Z"/><path class="cls-10" d="M1177,505.38a5.66,5.66,0,1,0,0,8A5.67,5.67,0,0,0,1177,505.38Z"/><path class="cls-2" d="M1105.94,265.48a3.6,3.6,0,1,0,0,5.09A3.59,3.59,0,0,0,1105.94,265.48Z"/><path class="cls-2" d="M1114.68,256.74a3.6,3.6,0,1,0,0,5.09A3.59,3.59,0,0,0,1114.68,256.74Z"/><path class="cls-2" d="M1140.91,230.51a3.61,3.61,0,1,0,0,5.1A3.61,3.61,0,0,0,1140.91,230.51Z"/><path class="cls-2" d="M1123.72,247.69a4,4,0,0,0-5.69,0l.3.31.3.3a3.17,3.17,0,1,1-.93,2.24,3.16,3.16,0,0,1,.93-2.24l-.3-.3-.3-.31a4,4,0,1,0,5.69,0Z"/><path class="cls-2" d="M1132.46,239a4,4,0,0,0-5.69,0l.3.31.3.3a3.17,3.17,0,1,1-.93,2.24,3.16,3.16,0,0,1,.93-2.24l-.3-.3-.3-.31a4,4,0,1,0,5.69,0Z"/><path class="cls-2" d="M1150,221.47a4,4,0,0,0-5.7,0l.3.31.3.3a3.14,3.14,0,0,1,2.25-.93,3.17,3.17,0,0,1,2.24,5.42,3.15,3.15,0,0,1-2.24.92,3.1,3.1,0,0,1-2.25-.93,3.16,3.16,0,0,1,0-4.48l-.3-.3-.3-.31a4,4,0,1,0,5.7,0Z"/><path class="cls-2" d="M1192.37,359.71a3.6,3.6,0,1,0,0,5.1A3.6,3.6,0,0,0,1192.37,359.71Z"/><path class="cls-2" d="M1183.63,368.45a3.61,3.61,0,1,0,0,5.1A3.6,3.6,0,0,0,1183.63,368.45Z"/><path class="cls-2" d="M1157.4,394.68a3.6,3.6,0,1,0,0,5.09A3.6,3.6,0,0,0,1157.4,394.68Z"/><path class="cls-2" d="M1174.89,382.29l-.3-.3a3.19,3.19,0,0,1-4.5,0,3.18,3.18,0,0,1,2.25-5.43,3.18,3.18,0,0,1,2.25,5.43l.3.3.3.3a4,4,0,1,0-5.7,0,4,4,0,0,0,5.7,0Z"/><path class="cls-2" d="M1166.15,391l-.3-.3a3.2,3.2,0,0,1-2.25.93,3.17,3.17,0,0,1-2.25-5.42,3.16,3.16,0,0,1,4.5,0,3.14,3.14,0,0,1,.93,2.24,3.18,3.18,0,0,1-.93,2.25l.3.3.3.3a4,4,0,1,0-5.7,0,4,4,0,0,0,5.7,0Z"/><path class="cls-2" d="M1148.67,408.51l-.31-.3a3.17,3.17,0,1,1,.93-2.24,3.16,3.16,0,0,1-.93,2.24l.31.3.3.3a4,4,0,1,0-5.7,0,4,4,0,0,0,5.7,0Z"/><path class="cls-7" d="M1159,213.29a8.79,8.79,0,0,0-12.4,0l-55.24,55.24a8.78,8.78,0,0,0,0,12.39l64.26,64.26a7.21,7.21,0,0,1,2.09,5.07,7.11,7.11,0,0,1-2.1,5.07l-38.32,38.33,1.12,1.13,38.33-38.33a8.79,8.79,0,0,0,0-12.4l-64.25-64.25a7.19,7.19,0,0,1,0-10.14l55.23-55.24a7.21,7.21,0,0,1,10.15,0l39.45,39.45a8.92,8.92,0,0,0,2.65,1.79v-1.79a7.14,7.14,0,0,1-1.52-1.13Z"/><path class="cls-2" d="M1153,139.58l-49.6,49.6a8.79,8.79,0,0,0,0,12.4L1162,260.19a7.21,7.21,0,0,1,0,10.15l-21.42,21.42a7.21,7.21,0,0,1-10.15,0l-37.2-37.2a8.79,8.79,0,0,0-12.4,0l-45.09,45.09a8.79,8.79,0,0,0,0,12.4l46.22,46.21,1.13-1.12-46.22-46.22a7.19,7.19,0,0,1,0-10.14l45.09-45.1a7.23,7.23,0,0,1,10.15,0l37.2,37.2a8.78,8.78,0,0,0,12.4,0l21.41-21.41a8.78,8.78,0,0,0,0-12.4l-58.61-58.62a7.19,7.19,0,0,1,0-10.14l49.6-49.6a7.19,7.19,0,0,1,10.14,0l35,34.94a8.81,8.81,0,0,0,.83.68v-2.1l-34.65-34.65A8.79,8.79,0,0,0,1153,139.58Z"/><path class="cls-8" d="M1165.68,82l-32,32a7.55,7.55,0,0,0,0,10.65l57,57a6.2,6.2,0,0,1,0,8.72l-96.08,96.07a6.17,6.17,0,0,1-8.71,0l-38.68-38.67a7.54,7.54,0,0,0-10.65,0l-32.47,32.46,1,1,32.47-32.47a6.18,6.18,0,0,1,8.71,0l38.68,38.67a7.54,7.54,0,0,0,10.65,0l96.07-96.07a7.56,7.56,0,0,0,0-10.66l-57.05-57a6.18,6.18,0,0,1,0-8.72l32-32a6.18,6.18,0,0,1,8.72,0L1200,107.59v-1.94L1176.33,82A7.54,7.54,0,0,0,1165.68,82Z"/><path class="cls-3" d="M1168.09,287.19a7.46,7.46,0,0,0-10.54,0l-34.5,34.5a7.47,7.47,0,0,0,0,10.54l30.68,30.67a6.14,6.14,0,0,1,0,8.63l-24,24a6.13,6.13,0,0,1-8.63,0l-72.85-72.84-1,1,72.84,72.84a7.48,7.48,0,0,0,10.55,0l24-24a7.47,7.47,0,0,0,0-10.55L1124,331.27a6.11,6.11,0,0,1,0-8.62l34.5-34.5a6.12,6.12,0,0,1,8.63,0L1200,321V319.1Z"/><path class="cls-3" d="M1165.21,164.51l-20.13,20.12a7.48,7.48,0,0,0,0,10.55L1200,250.09v-1.92l-54-53.95a6.12,6.12,0,0,1,0-8.63l20.13-20.12a6.11,6.11,0,0,1,8.62,0L1200,190.68v-1.92l-24.25-24.25A7.47,7.47,0,0,0,1165.21,164.51Z"/><path class="cls-9" d="M1164.15,166.93a11.31,11.31,0,1,0,0,16A11.31,11.31,0,0,0,1164.15,166.93Z"/><path class="cls-9" d="M1011.28,274.74a11.3,11.3,0,1,0,0,16A11.32,11.32,0,0,0,1011.28,274.74Z"/><path class="cls-9" d="M1168.14,344.1a17.66,17.66,0,1,0,0,25A17.66,17.66,0,0,0,1168.14,344.1Z"/><path class="cls-5" d="M1163.15,349.09a10.6,10.6,0,1,0,0,15A10.6,10.6,0,0,0,1163.15,349.09Z"/><path class="cls-5" d="M1165,84.19a21.31,21.31,0,1,0,0,30.14A21.32,21.32,0,0,0,1165,84.19Z"/><path class="cls-9" d="M1159,90.18a12.84,12.84,0,1,0,0,18.16A12.84,12.84,0,0,0,1159,90.18Z"/><path class="cls-5" d="M1124.11,171a12.84,12.84,0,1,0,0,18.16A12.84,12.84,0,0,0,1124.11,171Z"/><path class="cls-5" d="M1099.65,318.25a12.84,12.84,0,1,0,0,18.17A12.85,12.85,0,0,0,1099.65,318.25Z"/><path class="cls-5" d="M1189.59,299.62a7.24,7.24,0,1,0-.21,10.23A7.24,7.24,0,0,0,1189.59,299.62Z"/><path class="cls-5" d="M1122,388.12a7.24,7.24,0,1,0-.21,10.23A7.25,7.25,0,0,0,1122,388.12Z"/><path class="cls-6" d="M1077.86,262.81a14.32,14.32,0,1,0-4.88,19.66A14.33,14.33,0,0,0,1077.86,262.81Z"/><path class="cls-5" d="M1072,266.34a7.47,7.47,0,1,0-2.55,10.26A7.47,7.47,0,0,0,1072,266.34Z"/><path class="cls-4" d="M1184.68,275.44a30.35,30.35,0,0,0,15.32,8.28V224a30.5,30.5,0,0,0-15.32,51.43Z"/><path class="cls-5" d="M1192.66,267.46A19.08,19.08,0,0,0,1200,272V235.71a19.18,19.18,0,0,0-7.34,31.75Z"/><path class="cls-4" d="M1194.13,13.37a19.25,19.25,0,1,0,0,27.23A19.27,19.27,0,0,0,1194.13,13.37Z"/><path class="cls-5" d="M1189.09,18.41a12.13,12.13,0,1,0,0,17.15A12.13,12.13,0,0,0,1189.09,18.41Z"/><path class="cls-3" d="M1099.54,228.11l-.35-.35-.35-.35-17.46,17.46a9.38,9.38,0,0,1-13.23,0l-17.46-17.46a9.38,9.38,0,0,1,0-13.23l17.46-17.46a9.38,9.38,0,0,1,13.23,0l17.46,17.46a9.38,9.38,0,0,1,0,13.23l.35.35.35.35a10.38,10.38,0,0,0,0-14.63L1082.08,196a10.38,10.38,0,0,0-14.63,0L1050,213.49a10.36,10.36,0,0,0,0,14.62l17.45,17.46a10.38,10.38,0,0,0,14.63,0Z"/><path class="cls-6" d="M1093.28,233.42a4.16,4.16,0,1,0,0,5.89A4.18,4.18,0,0,0,1093.28,233.42Z"/><path class="cls-5" d="M1062.7,232.79a4.16,4.16,0,1,0,0,5.89A4.16,4.16,0,0,0,1062.7,232.79Z"/><path class="cls-3" d="M1062,208.07l-.35-.35a3.67,3.67,0,1,1,0-5.19,3.66,3.66,0,0,1,0,5.19l.35.35.35.35a4.65,4.65,0,1,0-6.58,0,4.67,4.67,0,0,0,6.58,0Z"/><polygon class="cls-4" points="1092.1 199.44 1088.49 203.06 1084.87 206.68 1089.81 208.01 1094.75 209.33 1093.43 204.39 1092.1 199.44"/><path class="cls-3" d="M1111.38,333.7a8.72,8.72,0,0,0,0-12.29l-14.67-14.67-.3.3-.29.29L1110.79,322a7.88,7.88,0,0,1,0,11.11l-14.67,14.67a7.89,7.89,0,0,1-11.12,0l-14.66-14.67a7.87,7.87,0,0,1,0-11.11L1085,307.33a7.89,7.89,0,0,1,11.12,0l.29-.29.3-.3a8.72,8.72,0,0,0-12.29,0l-14.67,14.67a8.72,8.72,0,0,0,0,12.29l14.67,14.66a8.71,8.71,0,0,0,12.29,0Z"/><path class="cls-2" d="M883,90.55a3.44,3.44,0,1,0,0,4.86A3.46,3.46,0,0,0,883,90.55Z"/><path class="cls-2" d="M891.31,98.89a3.44,3.44,0,1,0,0,4.87A3.43,3.43,0,0,0,891.31,98.89Z"/><path class="cls-2" d="M916.36,123.94a3.44,3.44,0,1,0,0,4.87A3.44,3.44,0,0,0,916.36,123.94Z"/><path class="cls-2" d="M900,107l-.29.28-.28.29a3,3,0,0,1-2.15,5.18,3,3,0,0,1,0-6.07,3.05,3.05,0,0,1,2.15.89l.28-.29L900,107a3.85,3.85,0,1,0,0,5.44A3.84,3.84,0,0,0,900,107Z"/><path class="cls-2" d="M908.3,115.3l-.29.29-.29.29a3,3,0,0,1,0,4.29,3,3,0,0,1-4.29,0,3,3,0,1,1,4.29-4.29l.29-.29.29-.29a3.85,3.85,0,1,0,0,5.44A3.85,3.85,0,0,0,908.3,115.3Z"/><path class="cls-2" d="M925,132l-.29.29-.28.28a3,3,0,0,1-2.15,5.18,3,3,0,0,1,0-6.06,3,3,0,0,1,2.14.88l.28-.28L925,132a3.85,3.85,0,1,0,0,5.44A3.85,3.85,0,0,0,925,132Z"/><path class="cls-2" d="M1084.77,30.72a3.44,3.44,0,1,0,0,4.87A3.44,3.44,0,0,0,1084.77,30.72Z"/><path class="cls-2" d="M1076.43,22.38a3.44,3.44,0,1,0,0,4.86A3.43,3.43,0,0,0,1076.43,22.38Z"/><path class="cls-2" d="M1051.38,2.2a3.32,3.32,0,0,0,.9-1.87h-6.66a3.32,3.32,0,0,0,.9,1.87A3.44,3.44,0,0,0,1051.38,2.2Z"/><path class="cls-2" d="M1068.36,13.74a3.84,3.84,0,0,0-5.43,5.44l.28-.29.29-.28a3.05,3.05,0,0,1-.89-2.15,3,3,0,0,1,6.07,0,3,3,0,0,1-5.18,2.15l-.29.28-.28.29a3.84,3.84,0,1,0,5.43-5.44Z"/><path class="cls-2" d="M1060,5.39a3.85,3.85,0,0,0-5.44,5.44l.29-.28.28-.29a3.08,3.08,0,0,1-.89-2.15,3,3,0,1,1,3,3,3.05,3.05,0,0,1-2.15-.89l-.28.29-.29.28A3.85,3.85,0,0,0,1060,5.39Z"/><path class="cls-2" d="M1155.57,37.16a3.44,3.44,0,1,0,0,4.87A3.44,3.44,0,0,0,1155.57,37.16Z"/><path class="cls-2" d="M1147.22,28.81a3.44,3.44,0,1,0,0,4.87A3.44,3.44,0,0,0,1147.22,28.81Z"/><path class="cls-2" d="M1122.18,3.77a3.44,3.44,0,1,0,0,4.86A3.44,3.44,0,0,0,1122.18,3.77Z"/><path class="cls-2" d="M1139.16,20.18a3.85,3.85,0,1,0-5.44,5.44l.29-.29.29-.29a3,3,0,0,1,2.15-5.18,3.09,3.09,0,0,1,2.14.89,3,3,0,0,1-2.14,5.18,3,3,0,0,1-2.15-.89l-.29.29-.29.29a3.85,3.85,0,0,0,5.44-5.44Z"/><path class="cls-2" d="M1130.82,11.83a3.85,3.85,0,1,0-5.44,5.44l.29-.29.28-.29a3,3,0,0,1,0-4.29,3,3,0,0,1,2.15-.88,3,3,0,0,1,3,3,3,3,0,0,1-3,3,3,3,0,0,1-2.15-.89l-.28.29-.29.29a3.85,3.85,0,0,0,5.44-5.44Z"/><path class="cls-2" d="M1109.26,0l-.29.29,0,0h.82A2.63,2.63,0,0,1,1109.26,0Z"/><path class="cls-2" d="M1108.93.33h-.45c.07.08.12.17.2.25Z"/><path class="cls-2" d="M1111.39.89a3.05,3.05,0,0,1-1.64-.56h-.82l-.25.25a3.84,3.84,0,0,0,5.44,0,2.31,2.31,0,0,0,.2-.24h-1.27A3.09,3.09,0,0,1,1111.39.89Z"/><path class="cls-2" d="M926.33,218.76a3.44,3.44,0,1,0,0,4.86A3.42,3.42,0,0,0,926.33,218.76Z"/><path class="cls-2" d="M934.68,227.1a3.44,3.44,0,1,0,0,4.87A3.43,3.43,0,0,0,934.68,227.1Z"/><path class="cls-2" d="M959.73,252.15a3.44,3.44,0,1,0,0,4.87A3.43,3.43,0,0,0,959.73,252.15Z"/><path class="cls-2" d="M943.32,235.16l-.29.29-.29.29a3,3,0,1,1-2.14-.89,3,3,0,0,1,2.14.89l.29-.29.29-.29a3.85,3.85,0,1,0,0,5.45A3.85,3.85,0,0,0,943.32,235.16Z"/><path class="cls-2" d="M951.67,243.51l-.29.29-.29.29a3,3,0,0,1,0,4.29,3,3,0,0,1-2.14.89,3,3,0,0,1-2.15-5.18,3,3,0,0,1,2.15-.89,3,3,0,0,1,2.14.89l.29-.29.29-.29a3.85,3.85,0,1,0,0,5.44A3.85,3.85,0,0,0,951.67,243.51Z"/><path class="cls-2" d="M968.36,260.21l-.28.28-.29.29a3.05,3.05,0,0,1,.89,2.15,3,3,0,0,1-6.07,0,3,3,0,0,1,3-3,3,3,0,0,1,2.14.88l.29-.29.28-.28a3.85,3.85,0,1,0,0,5.44A3.85,3.85,0,0,0,968.36,260.21Z"/><path class="cls-2" d="M1114.15,97.73a3.44,3.44,0,1,0,0,4.86A3.42,3.42,0,0,0,1114.15,97.73Z"/><path class="cls-2" d="M1106.09,89.09l-.29.29-.29.28a3,3,0,0,1,.89,2.15,3,3,0,0,1-.88,2.15,3,3,0,0,1-2.15.88,3,3,0,0,1-3-3,3,3,0,0,1,5.17-2.15l.29-.28.29-.29a3.85,3.85,0,1,0,0,5.44A3.85,3.85,0,0,0,1106.09,89.09Z"/><path class="cls-2" d="M1122.79,105.78l-.29.29-.29.29a3,3,0,0,1,.89,2.15,3,3,0,0,1-.89,2.14,3,3,0,0,1-4.29,0,3,3,0,0,1,0-4.29,3,3,0,0,1,4.29,0l.29-.29.29-.29a3.85,3.85,0,1,0,0,5.45A3.84,3.84,0,0,0,1122.79,105.78Z"/><path class="cls-3" d="M881.21,7.75l14,14a8.33,8.33,0,0,0,11.74,0l14-14A8.33,8.33,0,0,0,923.24.33h-.82a7.37,7.37,0,0,1,.18,1.55,7.45,7.45,0,0,1-2.2,5.31l-14,14a7.52,7.52,0,0,1-10.61,0l-14-14a7.45,7.45,0,0,1-2.2-5.31,7.37,7.37,0,0,1,.18-1.55h-.82A8.3,8.3,0,0,0,881.21,7.75Z"/><path class="cls-5" d="M915.44,11.56a3.34,3.34,0,1,0,0,4.73A3.36,3.36,0,0,0,915.44,11.56Z"/><path class="cls-3" d="M891.16,11.82l-.28.28-.28.28a2.88,2.88,0,0,1,.86,2.07,2.93,2.93,0,0,1-.86,2.09,2.95,2.95,0,1,1-2.08-5,2.93,2.93,0,0,1,2.08.87l.28-.28.28-.28a3.73,3.73,0,1,0,0,5.28A3.74,3.74,0,0,0,891.16,11.82Z"/><path class="cls-7" d="M842.21,43.17,868,17.33a6.87,6.87,0,0,1,9.69,0l25.83,25.84a6.87,6.87,0,0,1,0,9.69L870.19,86.23a8.39,8.39,0,0,0,0,11.84l47.37,47.37a8.39,8.39,0,0,0,11.84,0l56-56a6.87,6.87,0,0,1,9.69,0l20.46,20.45a6.85,6.85,0,0,1,2,4.85,6.78,6.78,0,0,1-2,4.84L980,155.13A8.39,8.39,0,0,0,980,167L1023.06,210a8.39,8.39,0,0,0,11.84,0L1079,165.89l-1.07-1.07L1033.83,209a6.89,6.89,0,0,1-9.69,0l-43.07-43.07a6.89,6.89,0,0,1,0-9.69l35.53-35.52a8.39,8.39,0,0,0,0-11.84L996.15,88.38a8.39,8.39,0,0,0-11.84,0l-56,56a6.87,6.87,0,0,1-9.69,0L871.27,97a6.89,6.89,0,0,1,0-9.69l33.37-33.38a8.39,8.39,0,0,0,0-11.84L878.8,16.25a8.41,8.41,0,0,0-11.84,0L841.13,42.09a6.87,6.87,0,0,1-9.69,0L789.68.33h-2.16l42.84,42.84A8.4,8.4,0,0,0,842.21,43.17Z"/><path class="cls-2" d="M980.27,49.75a6.82,6.82,0,0,1-2,4.84L940.59,92.27a8.39,8.39,0,0,0,0,11.84l52.75,52.75a8.39,8.39,0,0,0,11.84,0l61.37-61.36a6.86,6.86,0,0,1,9.68,0l36.61,36.6,1.07-1.07-36.6-36.61a8.4,8.4,0,0,0-11.84,0l-61.36,61.37a6.89,6.89,0,0,1-9.69,0L941.67,103a6.87,6.87,0,0,1,0-9.69l37.67-37.67a8.39,8.39,0,0,0,0-11.84L935.85.33h-2.16L978.27,44.9A6.84,6.84,0,0,1,980.27,49.75Z"/><path class="cls-8" d="M833.15,28.09,869.3,64.23a7.21,7.21,0,0,0,10.18,0L942.26,1.47A5.59,5.59,0,0,1,943.92.33h-2.33c-.08.07-.18.13-.26.21L878.55,63.32a5.92,5.92,0,0,1-8.33,0L834.07,27.16a5.9,5.9,0,0,1,0-8.32L852.57.33h-1.85L833.13,17.91A7.23,7.23,0,0,0,833.15,28.09Z"/><path class="cls-8" d="M950.59,1.48l22.24,22.24a5.92,5.92,0,0,1,1.72,4.17,5.84,5.84,0,0,1-1.71,4.16L909.13,95.76a7.22,7.22,0,0,0,0,10.17l25,25a7.22,7.22,0,0,0,10.18,0l94.18-94.18a5.78,5.78,0,0,1,4.16-1.71,5.87,5.87,0,0,1,4.17,1.72l37.07,37.08a5.9,5.9,0,0,1,0,8.32l-23.08,23.08a7.23,7.23,0,0,0,0,10.18l34.29,34.29.92-.92-34.29-34.29a5.92,5.92,0,0,1-1.72-4.17,5.81,5.81,0,0,1,1.71-4.16l23.08-23.09a7.21,7.21,0,0,0,0-10.17l-37.07-37.07a7.21,7.21,0,0,0-10.17,0l-94.18,94.18a5.9,5.9,0,0,1-8.33,0l-25-25a5.93,5.93,0,0,1,0-8.33L973.77,33a7.23,7.23,0,0,0,0-10.18L951.51.56c-.09-.09-.19-.15-.28-.23H948.9A5.76,5.76,0,0,1,950.59,1.48Z"/><path class="cls-3" d="M872.21,32.2a5.85,5.85,0,0,1,0,8.23L817.28,95.36a7.13,7.13,0,0,0,0,10.06L930.77,218.91a7.14,7.14,0,0,0,10.07,0l47.6-47.6a5.84,5.84,0,0,1,8.24,0l38.44,38.44.91-.92-38.44-38.44a7.15,7.15,0,0,0-10.07,0L939.93,218a5.83,5.83,0,0,1-4.12,1.69,5.76,5.76,0,0,1-4.12-1.7L818.2,104.51a5.84,5.84,0,0,1,0-8.24l54.92-54.92a7.15,7.15,0,0,0,0-10.07L842.17.33h-1.83Z"/><path class="cls-3" d="M746.81,35,761.46,49.6a7.14,7.14,0,0,0,10.07,0L820.8.33H819L770.61,48.68a5.84,5.84,0,0,1-8.24,0L747.73,34a5.84,5.84,0,0,1,0-8.24L773.2.33h-1.83L746.81,24.88A7.15,7.15,0,0,0,746.81,35Z"/><path class="cls-9" d="M1077.16,43.74a16.86,16.86,0,1,0,0,23.85A16.86,16.86,0,0,0,1077.16,43.74Z"/><path class="cls-10" d="M1071.44,49.46a8.78,8.78,0,1,0,0,12.41A8.79,8.79,0,0,0,1071.44,49.46Z"/><path class="cls-6" d="M852.21,31.83a10.8,10.8,0,1,0,0,15.27A10.81,10.81,0,0,0,852.21,31.83Z"/><path class="cls-10" d="M848.39,35.64a5.41,5.41,0,1,0,0,7.65A5.4,5.4,0,0,0,848.39,35.64Z"/><path class="cls-9" d="M783.79,10.64a10.81,10.81,0,0,0,15.28,0A10.78,10.78,0,0,0,801.85.33H781A10.76,10.76,0,0,0,783.79,10.64Z"/><path class="cls-5" d="M865.93,136.88a10.92,10.92,0,1,0,0,15.44A10.92,10.92,0,0,0,865.93,136.88Z"/><path class="cls-4" d="M889.76,160.71a10.92,10.92,0,1,0,0,15.44A10.92,10.92,0,0,0,889.76,160.71Z"/><path class="cls-6" d="M842.1,113.05a10.92,10.92,0,1,0,0,15.44A10.92,10.92,0,0,0,842.1,113.05Z"/><path class="cls-9" d="M915.5,186.45a10.92,10.92,0,1,0,0,15.44A10.92,10.92,0,0,0,915.5,186.45Z"/><path class="cls-6" d="M976.45,185.66a13.68,13.68,0,1,0-4.67,18.77A13.69,13.69,0,0,0,976.45,185.66Z"/><path class="cls-10" d="M969.72,189.71a5.83,5.83,0,1,0-2,8A5.83,5.83,0,0,0,969.72,189.71Z"/><path class="cls-6" d="M765.79,34.09a13.68,13.68,0,1,0-4.67,18.78A13.7,13.7,0,0,0,765.79,34.09Z"/><path class="cls-4" d="M1058.42,151.34a13.68,13.68,0,1,0-4.66,18.77A13.67,13.67,0,0,0,1058.42,151.34Z"/><path class="cls-5" d="M1052.83,154.71a7.15,7.15,0,1,0-2.44,9.81A7.16,7.16,0,0,0,1052.83,154.71Z"/><path class="cls-6" d="M981.69,28.38A13.68,13.68,0,1,0,977,47.15,13.69,13.69,0,0,0,981.69,28.38Z"/><path class="cls-4" d="M968.52,105.31a17,17,0,1,0,0,24.06A17,17,0,0,0,968.52,105.31Z"/><path class="cls-9" d="M963.76,110.08a10.27,10.27,0,1,0,0,14.52A10.28,10.28,0,0,0,963.76,110.08Z"/><path class="cls-4" d="M1011.42,95.3a6.9,6.9,0,1,0,0,9.76A6.91,6.91,0,0,0,1011.42,95.3Z"/><path class="cls-3" d="M827.28,72.62a9.9,9.9,0,0,0,0-14L810.61,42a9.93,9.93,0,0,0-14,0L780,58.66a9.9,9.9,0,0,0,0,14L796.64,89.3,797,89l.33-.34L780.63,72a9,9,0,0,1,0-12.64l16.68-16.67a9,9,0,0,1,12.63,0l16.68,16.67a9,9,0,0,1,0,12.64L809.94,88.63a8.94,8.94,0,0,1-12.63,0L797,89l-.34.33a9.91,9.91,0,0,0,14,0Z"/><path class="cls-6" d="M791.57,77.7a4,4,0,1,0,0,5.62A4,4,0,0,0,791.57,77.7Z"/><path class="cls-5" d="M792.17,48.5a4,4,0,1,0,0,5.62A4,4,0,0,0,792.17,48.5Z"/><path class="cls-3" d="M821.73,47.54a4.44,4.44,0,1,0-6.28,6.28l.33-.33.34-.33a3.51,3.51,0,1,1,2.47,1,3.5,3.5,0,0,1-2.47-1l-.34.33-.33.33a4.44,4.44,0,0,0,6.28-6.28Z"/><polygon class="cls-4" points="824.02 82.2 820.56 78.74 817.11 75.29 815.84 80.01 814.57 84.73 819.3 83.46 824.02 82.2"/><path class="cls-3" d="M1142.59,58.69a9.9,9.9,0,0,0,0-14l-16.67-16.68a9.9,9.9,0,0,0-14,0l-16.68,16.68.33.33.33.33,16.68-16.67a8.94,8.94,0,0,1,12.63,0l16.68,16.67a9,9,0,0,1,0,12.64L1125.25,74.7a8.94,8.94,0,0,1-12.63,0L1096,58a9,9,0,0,1,0-12.64l-.33-.33-.33-.33a9.9,9.9,0,0,0,0,14L1112,75.37a9.91,9.91,0,0,0,14,0Z"/><path class="cls-6" d="M1106.88,34a4,4,0,1,0,0,5.62A4,4,0,0,0,1106.88,34Z"/><path class="cls-5" d="M1136.08,34.63a4,4,0,1,0,0,5.62A4,4,0,0,0,1136.08,34.63Z"/><path class="cls-3" d="M1137,63.53a4.43,4.43,0,0,0-6.28,0l.33.33.33.34a3.51,3.51,0,1,1-1,2.47,3.48,3.48,0,0,1,1-2.47l-.33-.34-.33-.33a4.44,4.44,0,1,0,6.28,0Z"/><polygon class="cls-4" points="1109.29 65.19 1104.57 63.92 1099.85 62.66 1101.11 67.38 1102.38 72.1 1105.83 68.65 1109.29 65.19"/><path class="cls-3" d="M987.34,23.48,1004,40.15a9.91,9.91,0,0,0,14,0l16.67-16.67-.33-.33-.33-.34-16.68,16.68a9,9,0,0,1-12.63,0L988,22.81a8.94,8.94,0,0,1,0-12.63L997.86.33h-1.33l-9.19,9.18A9.91,9.91,0,0,0,987.34,23.48Z"/><path class="cls-3" d="M1034,10.18a8.94,8.94,0,0,1,0,12.63l.33.34.33.33a9.89,9.89,0,0,0,0-14L1025.47.33h-1.33Z"/><path class="cls-6" d="M1028.68,28.55a4,4,0,1,0,0,5.62A4,4,0,0,0,1028.68,28.55Z"/><path class="cls-5" d="M999.48,28a4,4,0,1,0,0,5.62A4,4,0,0,0,999.48,28Z"/><path class="cls-3" d="M999.54,1.53a3.52,3.52,0,0,1-1,2.48l.34.33.33.33a4.41,4.41,0,0,0,1.11-4.34h-1A3.33,3.33,0,0,1,999.54,1.53Z"/><path class="cls-3" d="M992.89,4.68a4.45,4.45,0,0,0,6.29,0l-.33-.33L998.51,4a3.51,3.51,0,0,1-6-2.48,3.33,3.33,0,0,1,.24-1.2h-1A4.43,4.43,0,0,0,992.89,4.68Z"/><polygon class="cls-4" points="1025.37 4.28 1030.09 5.54 1028.82 0.82 1028.69 0.33 1023.33 0.33 1020.65 3.01 1025.37 4.28"/><path class="cls-3" d="M995.65,235.4l-.23-.22-.22-.23-11.32,11.32a6.1,6.1,0,0,1-8.57,0L964,235a6.07,6.07,0,0,1,0-8.57l11.31-11.31a6.07,6.07,0,0,1,8.57,0l11.32,11.31a6.07,6.07,0,0,1,0,8.57l.22.23.23.22a6.71,6.71,0,0,0,0-9.47l-11.31-11.32a6.74,6.74,0,0,0-9.48,0l-11.31,11.32a6.72,6.72,0,0,0,0,9.48l11.31,11.31a6.74,6.74,0,0,0,9.48,0Z"/><path class="cls-6" d="M991.59,238.85a2.69,2.69,0,1,0,0,3.81A2.68,2.68,0,0,0,991.59,238.85Z"/><path class="cls-5" d="M971.78,238.44a2.7,2.7,0,1,0,0,3.82A2.7,2.7,0,0,0,971.78,238.44Z"/><path class="cls-3" d="M971.35,222.42l-.22-.23a2.38,2.38,0,0,1-1.69.7,2.38,2.38,0,1,1,2.38-2.38,2.37,2.37,0,0,1-.69,1.68l.22.23.23.22a3,3,0,1,0-4.27,0,3,3,0,0,0,4.27,0Z"/><polygon class="cls-4" points="990.83 216.83 988.49 219.17 986.15 221.52 989.35 222.38 992.55 223.24 991.69 220.03 990.83 216.83"/><path class="cls-3" d="M1065.9,164l-.28-.28-.28-.28-14,14a7.52,7.52,0,0,1-10.61,0l-14-14a7.51,7.51,0,0,1,0-10.61l14-14a7.52,7.52,0,0,1,10.61,0l14,14a7.52,7.52,0,0,1,0,10.61l.28.28.28.28a8.32,8.32,0,0,0,0-11.73l-14-14a8.31,8.31,0,0,0-11.73,0l-14,14a8.31,8.31,0,0,0,0,11.73l14,14a8.31,8.31,0,0,0,11.73,0Z"/><polygon class="cls-9" points="1113.82 115.77 1110.21 119.39 1106.59 123.01 1111.53 124.33 1116.48 125.66 1115.15 120.71 1113.82 115.77"/><polygon class="cls-6" points="1096.12 133.47 1092.51 137.09 1088.89 140.71 1093.83 142.03 1098.78 143.36 1097.45 138.41 1096.12 133.47"/><path class="cls-5" d="M1078.32,150.24a4,4,0,1,0,0,5.62A4,4,0,0,0,1078.32,150.24Z"/></g></g></svg>