<svg width="141" height="48" viewBox="0 0 141 48" fill="none" xmlns="http://www.w3.org/2000/svg">
<path d="M19.864 0.919998C23.8747 0.919998 26.84 1.79467 28.76 3.544C30.7227 5.29333 31.704 7.576 31.704 10.392C31.704 12.7813 31.0427 14.616 29.72 15.896C28.3973 17.1333 26.4987 17.752 24.024 17.752C23.256 17.752 22.7653 17.688 22.552 17.56C22.3387 17.3893 22.232 17.0693 22.232 16.6C22.232 16.1733 22.1893 15.6187 22.104 14.936C22.0613 14.2533 21.912 13.592 21.656 12.952C21.4 12.312 20.9947 11.7787 20.44 11.352C19.8853 10.8827 19.1173 10.648 18.136 10.648C16.7707 10.648 15.5547 11.0747 14.488 11.928C13.4213 12.7387 12.888 13.8053 12.888 15.128C12.888 16.28 13.3147 17.2187 14.168 17.944C15.064 18.6693 16.1733 19.352 17.496 19.992C18.8187 20.5893 20.248 21.208 21.784 21.848C23.3627 22.488 24.8133 23.3413 26.136 24.408C27.4587 25.432 28.5467 26.7333 29.4 28.312C30.296 29.848 30.744 31.8107 30.744 34.2C30.744 36.0773 30.424 37.848 29.784 39.512C29.1867 41.1333 28.2693 42.5627 27.032 43.8C25.8373 44.9947 24.3013 45.9333 22.424 46.616C20.5893 47.2987 18.4347 47.64 15.96 47.64C13.8267 47.64 11.8427 47.4053 10.008 46.936C8.216 46.4667 6.63733 45.8907 5.272 45.208C3.94933 44.4827 2.904 43.7147 2.136 42.904C1.368 42.0507 0.984 41.2827 0.984 40.6C0.984 37.784 1.13333 35.7573 1.432 34.52C1.77333 33.2827 2.37067 32.664 3.224 32.664C3.82133 32.664 4.44 32.92 5.08 33.432C5.76267 33.944 6.53067 34.52 7.384 35.16C8.23733 35.8 9.21867 36.376 10.328 36.888C11.48 37.4 12.8027 37.656 14.296 37.656C14.8933 37.656 15.4693 37.6133 16.024 37.528C16.6213 37.4 17.1333 37.208 17.56 36.952C18.0293 36.696 18.392 36.3547 18.648 35.928C18.9467 35.5013 19.096 34.9893 19.096 34.392C19.096 33.3253 18.6907 32.472 17.88 31.832C17.0693 31.192 16.0453 30.616 14.808 30.104C13.5707 29.5493 12.2267 28.9947 10.776 28.44C9.368 27.8427 8.04533 27.0533 6.808 26.072C5.57067 25.048 4.54667 23.7467 3.736 22.168C2.92533 20.5893 2.52 18.5627 2.52 16.088C2.52 13.3147 3.032 10.968 4.056 9.048C5.12267 7.128 6.46667 5.57067 8.088 4.376C9.752 3.13866 11.608 2.264 13.656 1.752C15.7467 1.19733 17.816 0.919998 19.864 0.919998ZM66.585 47C64.1957 47 62.489 46.5307 61.465 45.592C60.441 44.6533 59.929 43.3093 59.929 41.56C59.929 40.6213 60.0143 38.9573 60.185 36.568C60.3557 34.1787 60.5477 31.4907 60.761 28.504H49.369L48.089 46.04C48.0463 46.3813 47.961 46.6373 47.833 46.808C47.705 46.936 47.449 47 47.065 47H43.545C41.1557 47 39.449 46.5307 38.425 45.592C37.401 44.6533 36.889 43.3093 36.889 41.56C36.889 40.7067 36.953 39.256 37.081 37.208C37.209 35.1173 37.3797 32.7493 37.593 30.104C37.8063 27.4587 38.0197 24.664 38.233 21.72C38.4463 18.776 38.6597 16.0027 38.873 13.4C39.0863 10.7973 39.257 8.51466 39.385 6.552C39.513 4.58933 39.577 3.24533 39.577 2.52C39.577 1.88 39.9183 1.56 40.601 1.56H44.121C46.7237 1.56 48.473 2.11466 49.369 3.224C50.265 4.33333 50.713 5.976 50.713 8.152C50.713 8.49333 50.649 9.70933 50.521 11.8C50.393 13.848 50.2223 16.3227 50.009 19.224H61.465C61.593 17.3467 61.721 15.512 61.849 13.72C62.0197 11.928 62.1477 10.2853 62.233 8.792C62.361 7.29867 62.4463 6.01867 62.489 4.952C62.5743 3.84267 62.617 3.032 62.617 2.52C62.617 1.88 62.9583 1.56 63.641 1.56H67.161C69.7637 1.56 71.513 2.11466 72.409 3.224C73.305 4.33333 73.753 5.976 73.753 8.152C73.753 8.36533 73.7103 9.048 73.625 10.2C73.5823 11.352 73.497 12.8027 73.369 14.552C73.241 16.3013 73.0917 18.264 72.921 20.44C72.793 22.5733 72.6437 24.7707 72.473 27.032C72.345 29.2933 72.1957 31.512 72.025 33.688C71.897 35.8213 71.769 37.7627 71.641 39.512C71.513 41.2613 71.4063 42.7333 71.321 43.928C71.2357 45.08 71.1717 45.784 71.129 46.04C71.0863 46.3813 71.001 46.6373 70.873 46.808C70.745 46.936 70.489 47 70.105 47H66.585ZM86.67 47C84.2807 47 82.574 46.5307 81.55 45.592C80.526 44.6533 80.014 43.3093 80.014 41.56C80.014 40.7067 80.078 39.256 80.206 37.208C80.334 35.1173 80.5047 32.7493 80.718 30.104C80.9313 27.4587 81.1447 24.664 81.358 21.72C81.5713 18.776 81.7847 16.0027 81.998 13.4C82.2113 10.7973 82.382 8.51466 82.51 6.552C82.638 4.58933 82.702 3.24533 82.702 2.52C82.702 1.88 83.0433 1.56 83.726 1.56H87.246C89.6353 1.56 91.278 2.02933 92.174 2.968C93.1127 3.864 93.582 5.208 93.582 7C93.582 7.21333 93.5607 7.40533 93.518 7.576C93.518 7.74666 93.518 7.93866 93.518 8.152L91.406 38.04H102.926C103.182 38.04 103.417 38.1253 103.63 38.296C103.843 38.424 103.95 38.6373 103.95 38.936L103.694 42.712C103.609 43.992 103.246 45.0373 102.606 45.848C102.009 46.616 100.75 47 98.83 47H86.67ZM120.632 47C118.072 47 116.322 46.5093 115.384 45.528C114.445 44.504 113.976 42.9467 113.976 40.856C113.976 40.1307 114.018 38.9573 114.104 37.336C114.189 35.7147 114.381 33.1973 114.68 29.784C114.338 29.144 114.04 28.5893 113.784 28.12C113.528 27.6507 113.272 27.16 113.016 26.648C112.76 26.136 112.482 25.5387 112.184 24.856C111.885 24.1733 111.501 23.32 111.032 22.296C110.306 20.7173 109.474 18.8827 108.536 16.792C107.64 14.7013 106.765 12.696 105.911 10.776C105.058 8.81333 104.333 7.08533 103.736 5.592C103.181 4.09866 102.904 3.16 102.904 2.776C102.904 1.88 104.333 1.432 107.192 1.432C108.984 1.432 110.413 1.624 111.48 2.008C112.589 2.34933 113.485 2.84 114.168 3.48C114.85 4.07733 115.362 4.80267 115.704 5.656C116.045 6.46666 116.365 7.34133 116.664 8.28C117.048 9.51733 117.325 10.4347 117.496 11.032C117.666 11.6293 117.794 12.12 117.88 12.504C118.008 12.888 118.136 13.272 118.264 13.656C118.392 13.9973 118.562 14.552 118.776 15.32C119.032 16.088 119.373 17.1547 119.8 18.52C120.226 19.8853 120.824 21.7627 121.592 24.152C122.829 21.5493 123.81 19.4373 124.536 17.816C125.304 16.1947 125.965 14.7013 126.52 13.336C127.074 11.928 127.586 10.4987 128.056 9.048C128.568 7.55466 129.208 5.67733 129.976 3.416C130.232 2.60533 130.488 2.09333 130.744 1.88C131.042 1.624 131.49 1.496 132.088 1.496C132.301 1.496 132.877 1.53866 133.816 1.624C134.797 1.66667 135.8 1.816 136.824 2.072C137.89 2.328 138.85 2.73333 139.704 3.288C140.557 3.84267 140.984 4.58933 140.984 5.528C140.984 6.25333 140.728 7.27733 140.216 8.6C139.746 9.92267 139.106 11.416 138.296 13.08C137.528 14.7013 136.61 16.4293 135.544 18.264C134.52 20.0987 133.453 21.8907 132.344 23.64C131.234 25.3893 130.125 27.0107 129.016 28.504C127.949 29.9547 126.968 31.1493 126.072 32.088C126.029 33.112 125.965 34.328 125.88 35.736C125.837 37.144 125.752 38.552 125.624 39.96C125.538 41.3253 125.453 42.584 125.368 43.736C125.282 44.8453 125.218 45.6133 125.176 46.04C125.133 46.3813 125.048 46.6373 124.92 46.808C124.792 46.936 124.536 47 124.152 47H120.632Z" fill="#F28705"/>
</svg>
